<!-- icon666.com - MILLIONS OF FREE VECTOR ICONS --><svg viewBox="0 0 25 25" xmlns="http://www.w3.org/2000/svg" xmlns:xlink="http://www.w3.org/1999/xlink"><linearGradient id="linear-gradient" gradientUnits="userSpaceOnUse" x1="2" x2="23" y1="13.01" y2="13.01"><stop offset=".1" stop-color="#4d148b"></stop><stop offset=".36" stop-color="#a8196f"></stop><stop offset=".49" stop-color="#d81b60"></stop><stop offset=".98" stop-color="#ff6f00"></stop></linearGradient><g id="Layer_7" data-name="Layer 7"><path d="m12 7.5v-3a.5.5 0 0 1 1 0v3a.5.5 0 0 1 -1 0zm-4.8 2.4a.48.48 0 0 0 .7 0 .48.48 0 0 0 0-.7l-1.41-1.42a.5.5 0 1 0 -.71.71zm11.83 4a.51.51 0 0 0 .49.41h.09l3-.54a.5.5 0 0 0 -.18-1l-3 .54a.5.5 0 0 0 -.43.55zm-16.6-.14 3 .54h.09a.51.51 0 0 0 .48-.44.5.5 0 0 0 -.4-.58l-3-.54a.49.49 0 0 0 -.58.4.5.5 0 0 0 .41.58zm15-3.67a.47.47 0 0 0 .35-.15l1.42-1.41a.5.5 0 1 0 -.71-.71l-1.39 1.38a.48.48 0 0 0 0 .7.47.47 0 0 0 .35.15zm5.57 5.41a.5.5 0 0 1 -.5.5h-20a.5.5 0 0 1 0-1h4.55c0-.17 0-.32 0-.5a5.5 5.5 0 0 1 11 0c0 .18 0 .33-.05.5h4.5a.5.5 0 0 1 .5.5zm-6-.5a4.07 4.07 0 0 0 0-.5 4.5 4.5 0 0 0 -9 0 4.07 4.07 0 0 0 0 .5zm4.4 3h-17.77a.5.5 0 1 0 0 1h17.74a.5.5 0 1 0 0-1zm-.88 3h-15.9a.5.5 0 0 0 -.5.5.5.5 0 0 0 .5.5h15.87a.51.51 0 0 0 .5-.5.5.5 0 0 0 -.5-.5z" fill="url(#linear-gradient)"></path></g></svg>