<!-- icon666.com - MILLIONS OF FREE VECTOR ICONS --><svg viewBox="0 0 25 25" xmlns="http://www.w3.org/2000/svg" xmlns:xlink="http://www.w3.org/1999/xlink"><linearGradient id="linear-gradient" gradientUnits="userSpaceOnUse" x1="2" x2="23" y1="11.7" y2="11.7"><stop offset=".1" stop-color="#4d148b"></stop><stop offset=".36" stop-color="#a8196f"></stop><stop offset=".49" stop-color="#d81b60"></stop><stop offset=".98" stop-color="#ff6f00"></stop></linearGradient><g id="Layer_11" data-name="Layer 11"><path d="m12 5.49v-3a.5.5 0 0 1 1 0v3a.5.5 0 1 1 -1 0zm-4.8 2.4a.48.48 0 0 0 .7 0 .48.48 0 0 0 0-.7l-1.41-1.42a.5.5 0 1 0 -.71.71zm10.25.11a.47.47 0 0 0 .35-.15l1.42-1.41a.5.5 0 1 0 -.71-.71l-1.41 1.46a.48.48 0 0 0 0 .7.47.47 0 0 0 .35.11zm1.55 4.5a.5.5 0 0 0 .5.5h3a.5.5 0 0 0 0-1h-3a.5.5 0 0 0 -.5.5zm-16.5.5h3a.5.5 0 0 0 0-1h-3a.5.5 0 0 0 0 1zm20.5 1.9a.5.5 0 0 1 -.5.5 3 3 0 0 1 -1.67-.46 2.08 2.08 0 0 0 -1.19-.34 2.05 2.05 0 0 0 -1.19.34 3.08 3.08 0 0 1 -1.52.45h-.15a3.1 3.1 0 0 1 -1.68-.46 2.22 2.22 0 0 0 -2.36 0 3.28 3.28 0 0 1 -3.35 0 2 2 0 0 0 -1.18-.34 2 2 0 0 0 -1.21.35 3.09 3.09 0 0 1 -1.67.46 3.1 3.1 0 0 1 -1.68-.46 2 2 0 0 0 -1.15-.34.5.5 0 0 1 0-1 3.09 3.09 0 0 1 1.67.46 2.05 2.05 0 0 0 1.19.34 2 2 0 0 0 1.18-.34 3.38 3.38 0 0 1 .63-.29 5.49 5.49 0 1 1 10.83-1.27 5.35 5.35 0 0 1 -.28 1.69l.24-.13a3.28 3.28 0 0 1 3.35 0 2.08 2.08 0 0 0 1.19.34.5.5 0 0 1 .5.5zm-7.41-.84a2.19 2.19 0 0 0 1 .33 4.51 4.51 0 1 0 -8.43-.79h.06a3.09 3.09 0 0 1 1.67.46 2.24 2.24 0 0 0 2.37 0 3.09 3.09 0 0 1 1.67-.46 3 3 0 0 1 1.66.46zm6.91 3.34a2.08 2.08 0 0 1 -1.19-.34 3.28 3.28 0 0 0 -3.35 0 2 2 0 0 1 -1.18.34 2.05 2.05 0 0 1 -1.19-.34 3 3 0 0 0 -1.67-.46 3.09 3.09 0 0 0 -1.67.46 2.24 2.24 0 0 1 -2.37 0 3.09 3.09 0 0 0 -1.67-.46 3.06 3.06 0 0 0 -1.67.46 2 2 0 0 1 -1.18.34 2.05 2.05 0 0 1 -1.19-.34 3.09 3.09 0 0 0 -1.67-.46.5.5 0 0 0 0 1 2 2 0 0 1 1.18.34 3.1 3.1 0 0 0 1.68.46 3.09 3.09 0 0 0 1.64-.46 2 2 0 0 1 1.18-.34 2 2 0 0 1 1.18.34 3.28 3.28 0 0 0 3.35 0 2.22 2.22 0 0 1 2.36 0 3.28 3.28 0 0 0 3.35 0 2.05 2.05 0 0 1 1.19-.34 2.08 2.08 0 0 1 1.19.34 3 3 0 0 0 1.67.46.5.5 0 0 0 0-1zm0 3a2.08 2.08 0 0 1 -1.19-.34 3.28 3.28 0 0 0 -3.35 0 2 2 0 0 1 -1.18.34 2.05 2.05 0 0 1 -1.19-.34 3 3 0 0 0 -1.67-.46 3.09 3.09 0 0 0 -1.67.46 2.24 2.24 0 0 1 -2.37 0 3.09 3.09 0 0 0 -1.67-.46 3.06 3.06 0 0 0 -1.67.46 2 2 0 0 1 -1.18.34 2.05 2.05 0 0 1 -1.19-.34 3.09 3.09 0 0 0 -1.67-.46.5.5 0 0 0 0 1 2 2 0 0 1 1.18.34 3.1 3.1 0 0 0 1.68.46 3.09 3.09 0 0 0 1.64-.46 2 2 0 0 1 1.18-.34 2 2 0 0 1 1.18.34 3.28 3.28 0 0 0 3.35 0 2.22 2.22 0 0 1 2.36 0 3.28 3.28 0 0 0 3.35 0 2.05 2.05 0 0 1 1.19-.34 2.08 2.08 0 0 1 1.19.34 3 3 0 0 0 1.67.46.5.5 0 0 0 0-1z" fill="url(#linear-gradient)"></path></g></svg>